<?xml version="1.0" encoding="UTF-8"?>
<svg width="20px" height="20px" viewBox="0 0 20 20" version="1.1" xmlns="http://www.w3.org/2000/svg" xmlns:xlink="http://www.w3.org/1999/xlink">
    <!-- Generator: Sketch 64 (93537) - https://sketch.com -->
    <title>案件</title>
    <desc>Created with Sketch.</desc>
    <g id="页面-2" stroke="none" stroke-width="1" fill="none" fill-rule="evenodd">
        <g id="首页" transform="translate(-178.000000, -736.000000)" fill="#999999">
            <g id="tabbar" transform="translate(0.000000, 728.000000)">
                <g id="案件" transform="translate(178.000000, 8.000000)">
                    <path d="M15,2 C16.1045695,2 17,2.8954305 17,4 L17,16 C17,17.1045695 16.1045695,18 15,18 L5,18 C3.8954305,18 3,17.1045695 3,16 L3,4 C3,2.8954305 3.8954305,2 5,2 L15,2 Z M15,3.5 L5,3.5 C4.75454011,3.5 4.55039163,3.67687516 4.50805567,3.91012437 L4.5,4 L4.5,16 C4.5,16.2454599 4.67687516,16.4496084 4.91012437,16.4919443 L5,16.5 L15,16.5 C15.2454599,16.5 15.4496084,16.3231248 15.4919443,16.0898756 L15.5,16 L15.5,4 C15.5,3.75454011 15.3231248,3.55039163 15.0898756,3.50805567 L15,3.5 Z" id="矩形" fill-rule="nonzero"></path>
                    <path d="M14,2.30548564 L14,7.26148352 C14,7.53762589 13.7761424,7.76148352 13.5,7.76148352 C13.4363903,7.76148352 13.3733648,7.74934592 13.3143047,7.72572186 L11.6856953,7.07427814 C11.5664898,7.02659593 11.4335102,7.02659593 11.3143047,7.07427814 L9.68569534,7.72572186 C9.42930358,7.82827857 9.13831836,7.70357062 9.03576165,7.44717886 C9.0121376,7.38811872 9,7.32509323 9,7.26148352 L9,2.30548564 L14,2.30548564 Z M12.75,3.555 L10.25,3.555 L10.25,6.153 L10.8500663,5.91368227 C11.2151332,5.76765552 11.6171105,5.74940217 11.9914049,5.85892224 L12.1499337,5.91368227 L12.75,6.154 L12.75,3.555 Z" id="矩形" fill-rule="nonzero"></path>
                    <rect id="矩形" x="6" y="10" width="6" height="1.5" rx="0.75"></rect>
                    <rect id="矩形备份-3" x="6" y="13" width="8" height="1.5" rx="0.75"></rect>
                </g>
            </g>
        </g>
    </g>
</svg>