<?xml version="1.0" encoding="UTF-8"?>
<svg width="18px" height="18px" viewBox="0 0 18 18" version="1.1" xmlns="http://www.w3.org/2000/svg" xmlns:xlink="http://www.w3.org/1999/xlink">
    <!-- Generator: Sketch 64 (93537) - https://sketch.com -->
    <title>我的</title>
    <desc>Created with Sketch.</desc>
    <g id="页面-2" stroke="none" stroke-width="1" fill="none" fill-rule="evenodd">
        <g id="我的" transform="translate(-24.000000, -217.000000)" fill-rule="nonzero">
            <g id="编组" transform="translate(24.000000, 215.000000)">
                <g id="我的" transform="translate(0.000000, 2.000000)">
                    <rect id="矩形" fill="#000000" opacity="0" x="0" y="0" width="18" height="18"></rect>
                    <path d="M9,4.116 C11.209139,4.116 13,5.906861 13,8.116 C13,10.325139 11.209139,12.116 9,12.116 C6.790861,12.116 5,10.325139 5,8.116 C5.00220492,5.90777495 6.79177495,4.11820492 9,4.116 M9,2.516 C5.9072054,2.516 3.4,5.0232054 3.4,8.116 C3.4,11.2087946 5.9072054,13.716 9,13.716 C12.0927946,13.716 14.6,11.2087946 14.6,8.116 C14.6,5.0232054 12.0927946,2.516 9,2.516 Z" id="形状" fill="#4C4C4C"></path>
                    <path d="M13.024,14.476 L4.976,14.476 C4.76807027,14.476 4.5686568,14.5585998 4.42162828,14.7056283 C4.27459976,14.8526568 4.192,15.0520703 4.192,15.26 L4.192,15.316 C4.192,15.5239297 4.27459976,15.7233432 4.42162828,15.8703717 C4.5686568,16.0174002 4.76807027,16.1 4.976,16.1 L13.024,16.1 C13.4569912,16.1 13.808,15.7489912 13.808,15.316 L13.808,15.26 C13.808,14.8270088 13.4569912,14.476 13.024,14.476 L13.024,14.476 Z" id="路径" fill="#4C4C4C"></path>
                    <path d="M7.4,10.464 C7.40218822,10.0230818 7.75908177,9.66618822 8.2,9.664 L9.8,9.664 C10.2409182,9.66618822 10.5978118,10.0230818 10.6,10.464 C10.5978118,10.9049182 10.2409182,11.2618118 9.8,11.264 L8.2,11.264 C7.7581722,11.264 7.4,10.9058278 7.4,10.464 L7.4,10.464 Z" id="路径" fill-opacity="0.497295673" fill="#4C4C4C"></path>
                </g>
            </g>
        </g>
    </g>
</svg>