<?xml version="1.0" encoding="UTF-8"?>
<svg width="16px" height="16px" viewBox="0 0 16 16" version="1.1" xmlns="http://www.w3.org/2000/svg" xmlns:xlink="http://www.w3.org/1999/xlink">
    <!-- Generator: Sketch 64 (93537) - https://sketch.com -->
    <title>已收藏</title>
    <desc>Created with Sketch.</desc>
    <g id="页面-2" stroke="none" stroke-width="1" fill="none" fill-rule="evenodd">
        <g id="首页-已收藏" transform="translate(-34.000000, -430.000000)" fill-rule="nonzero">
            <g id="编组-5" transform="translate(10.000000, 322.000000)">
                <g id="编组-3" transform="translate(23.000000, 107.000000)">
                    <g id="收藏" transform="translate(1.000000, 0.500000)">
                        <path d="M7.49946899,14.4999924 C7.29647934,14.5008216 7.09934581,14.4333985 6.94101428,14.3089834 L5.07358901,12.8620039 C2.44973831,10.8130808 1.36828633,9.54552668 1.08167201,8.17379005 C0.851253317,7.06972853 1.11361015,5.92185167 1.80263999,5.01937458 C2.45541994,4.16531508 3.44540774,3.62016997 4.52965097,3.51772306 C5.61389419,3.41527614 6.69202833,3.76501057 7.49946899,4.48109818 C8.21255453,3.84672164 9.14225906,3.49674238 10.105591,3.50002285 C12.2550643,3.50323336 13.9967457,5.20906027 14,7.31428418 C14,9.09406906 13.0101464,10.4368661 9.92830376,12.8475341 L8.06678806,14.2945136 C7.90812702,14.4260309 7.70732306,14.4987579 7.49946899,14.4999924 Z" id="形状" fill="#00AFB7"></path>
                        <path d="M5.97564835,6.01323499 C6.25179072,6.01323499 6.47564835,6.23709262 6.47564835,6.51323499 C6.47564835,6.78937737 6.25179072,7.01323499 5.97564835,7.01323499 C5.20905258,7.01323499 4.57906585,7.59812785 4.50760235,8.34599939 L4.50085114,8.5 C4.50085114,8.77614237 4.27699352,9 4.00085114,9 C3.75539125,9 3.55124277,8.82312484 3.50890681,8.58987563 L3.50085114,8.4880322 C3.50085114,7.12123944 4.60885559,6.01323499 5.97564835,6.01323499 Z" id="路径-2" fill-opacity="0.755408654" fill="#FFFFFF"></path>
                    </g>
                </g>
            </g>
        </g>
    </g>
</svg>