<?xml version="1.0" encoding="UTF-8"?>
<svg width="20px" height="20px" viewBox="0 0 20 20" version="1.1" xmlns="http://www.w3.org/2000/svg" xmlns:xlink="http://www.w3.org/1999/xlink">
    <!-- Generator: Sketch 64 (93537) - https://sketch.com -->
    <title>删除</title>
    <desc>Created with Sketch.</desc>
    <g id="页面-2" stroke="none" stroke-width="1" fill="none" fill-rule="evenodd">
        <g id="搜索-历史搜索" transform="translate(-341.000000, -160.000000)" fill-rule="nonzero">
            <g id="编组" transform="translate(14.000000, 158.000000)">
                <g id="删除" transform="translate(327.000000, 2.000000)">
                    <rect id="矩形" fill="#000000" opacity="0" x="4" y="4" width="12" height="12"></rect>
                    <path d="M5,6 L15,6 L14.4,15.1 C14.4,15.6 13.9,16 13.4,16 L6.60000001,16 C6.1,16 5.60000001,15.6 5.6,15.1 L5,6 Z M6.1,7 L6.6,15 L13.4,15 L13.9,7 L6.1,7 Z" id="形状" fill="#9E9E9E"></path>
                    <path d="M8,8.95454546 C8,8.68181819 8.2,8.5 8.5,8.5 C8.8,8.5 9,8.77272727 9,8.95454546 L9,13.0454546 C9,13.3181818 8.8,13.5 8.5,13.5 C8.2,13.5 8,13.3181818 8,13.0454546 L8,8.95454546 Z M11,8.95454546 C11,8.68181819 11.2,8.5 11.5,8.5 C11.8,8.5 12,8.77272727 12,8.95454546 L12,13.0454546 C12,13.3181818 11.8,13.5 11.5,13.5 C11.2,13.5 11,13.3181818 11,13.0454546 L11,8.95454546 Z" id="形状" fill="#CECECE"></path>
                    <path d="M8.5,5 C8.2,5 8,4.8 8,4.5 C8,4.2 8.2,4 8.5,4 L11.5,4 C11.8,4 12,4.2 12,4.5 C12,4.8 11.8,5 11.5,5 L8.5,5 Z M4.54545454,7 C4.21818181,7 4,6.8 4,6.5 C4,6.2 4.21818181,6 4.54545454,6 L15.4545455,6 C15.7818182,6 16,6.20000001 16,6.5 C16,6.79999998 15.7818182,7 15.4545455,7 L4.54545454,7 L4.54545454,7 Z" id="形状" fill="#9E9E9E"></path>
                </g>
            </g>
        </g>
    </g>
</svg>