<?xml version="1.0" encoding="UTF-8"?>
<svg width="20px" height="20px" viewBox="0 0 20 20" version="1.1" xmlns="http://www.w3.org/2000/svg" xmlns:xlink="http://www.w3.org/1999/xlink">
    <!-- Generator: Sketch 64 (93537) - https://sketch.com -->
    <title>首页</title>
    <desc>Created with Sketch.</desc>
    <g id="页面-2" stroke="none" stroke-width="1" fill="none" fill-rule="evenodd">
        <g id="我的" transform="translate(-53.000000, -736.000000)">
            <g id="tabbar" transform="translate(0.000000, 728.000000)">
                <g id="首页" transform="translate(53.000000, 8.000000)">
                    <rect id="矩形" fill="#000000" fill-rule="nonzero" opacity="0" x="1" y="1" width="17.982439" height="17.982439"></rect>
                    <path d="M9.76221513,1.12783095 C10.027623,1.02291615 10.34156,1.07802442 10.5558919,1.29295068 L10.5558919,1.29295068 L19.3777289,10.1392502 C19.6667739,10.4290967 19.6670394,10.8980994 19.3783228,11.188273 L19.3783228,11.188273 C19.0879006,11.4779 18.6209761,11.4772535 18.3333846,11.1888645 L18.3333846,11.1888645 L10.027,2.85923531 L1.71130195,11.1985826 C1.42371045,11.4869716 0.956786004,11.4876181 0.66839702,11.2000266 L0.666363814,11.1979911 C0.377647159,10.9078175 0.377912665,10.4388148 0.666957674,10.1489683 L9.48879463,1.3026688 C9.56722868,1.22401726 9.65900154,1.16676805 9.75685368,1.13093123 Z" id="形状结合" fill="#999999"></path>
                    <path d="M17,7.5 L17,16.5 C17,17.0522847 16.5522847,17.5 16,17.5 L4,17.5 C3.44771525,17.5 3,17.0522847 3,16.5 L3,7.5 L4.5,7.5 L4.5,16.0000048 L15.5,16.0000048 L15.5,7.5 L17,7.5 Z" id="形状结合" fill="#999999" fill-rule="nonzero"></path>
                </g>
            </g>
        </g>
    </g>
</svg>