<?xml version="1.0" encoding="UTF-8"?>
<svg width="16px" height="16px" viewBox="0 0 16 16" version="1.1" xmlns="http://www.w3.org/2000/svg" xmlns:xlink="http://www.w3.org/1999/xlink">
    <!-- Generator: Sketch 64 (93537) - https://sketch.com -->
    <title>朋友圈</title>
    <desc>Created with Sketch.</desc>
    <g id="页面-2" stroke="none" stroke-width="1" fill="none" fill-rule="evenodd">
        <g id="首页" transform="translate(-293.000000, -430.000000)">
            <g id="编组-5" transform="translate(10.000000, 322.000000)">
                <g id="编组-3备份-3" transform="translate(283.000000, 107.000000)">
                    <g id="朋友圈" transform="translate(0.000000, 1.000000)">
                        <path d="M5.45900001,12.4229 L5.45900001,8.0519 L3.50690001,9.87245 C3.44645,9.92885 3.37475001,9.96544999 3.29945001,9.98225 C3.73422222,11.0092076 4.49250491,11.8662456 5.45900001,12.4229 Z M3.01835,9.09725 L5.96735,6.34715 L3.20000001,6.34715 C3.1913,6.34715 3.18260001,6.347 3.17405,6.34640001 C2.99200632,6.87868311 2.89940261,7.43744791 2.89999713,8 C2.89999713,8.37665 2.94079999,8.744 3.01835,9.09725 Z M7.26635,6.34715 L6.37393901,7.23701781 L6.35885,8.54915 L7.43137963,9.64504999 L8.7206,9.644 L9.68795,8.62701471 L9.68795,7.27494899 L8.72225,6.33035 L7.26635,6.34715 Z M8,13.1000063 C8.4608,13.1000063 8.90735,13.03895 9.332,12.92435 L6.35900001,9.80735 L6.35900001,12.8 C6.35900001,12.81005 6.35855001,12.81995 6.35795,12.83 C6.88679845,13.009405 7.44154996,13.100622 8,13.1000063 Z M10.2317,12.58715 C11.148704,12.1394298 11.9110869,11.4280257 12.4211,10.54415 L8.30525,10.54415 L10.16075,12.48965 C10.18925,12.51965 10.21295,12.5525 10.2317,12.58715 Z M13.1000061,8 C13.1000061,7.48445001 13.0235,6.98675001 12.8813,6.5177 L9.95345,9.644 L12.8,9.644 C12.80975,9.644 12.81935,9.6443 12.82895,9.6449 C13.0090394,9.11530902 13.1006159,8.55951524 13.1000061,8 Z M7.82105,5.44715 L5.85605,3.52145 C5.82283125,3.48895783 5.79484913,3.45151339 5.77310001,3.41045 C4.85706871,3.85657835 4.09489062,4.56574762 3.584,5.44730001 L7.82105,5.44715 Z M9.68104999,6.00995 L9.68104999,3.26495 C9.68104999,3.23795 9.68345,3.21169999 9.68795,3.1859 C9.14546659,2.99602404 8.57475274,2.89935821 8,2.89999368 C7.5446,2.89999368 7.103,2.95969999 6.68300001,3.07175001 L9.68104999,6.00995 Z M10.5812,7.6574 L12.47165,5.6384 C12.48215,5.62715 12.4934,5.61650001 12.50465,5.60660001 C12.060578,4.77341598 11.3949394,4.07912318 10.5812,3.60035 L10.5812,7.08065 L10.5812,7.6574 Z M8,14 C4.68635001,14 2,11.31365 2,8 C2,4.68635001 4.68635001,2 8,2 C11.31365,2 14,4.68634999 14,8 C14,11.31365 11.31365,14 8,14 Z" id="形状" fill="#4E4E4E" fill-rule="nonzero"></path>
                        <circle id="椭圆形" fill="#FFFFFF" opacity="0.602097284" cx="8" cy="8" r="5.1"></circle>
                        <path d="M7.95247426,5.20848005 L9.89306573,5.89942478 L10.7674321,7.77450944 L10.1064961,9.82779488 L8.2605884,10.6885558 L6.07666466,9.835284 L5.22222767,8.00293796 C5.28132835,7.85655527 5.36743304,7.64025452 5.48054175,7.35403572 C5.59365046,7.06781693 5.7903914,6.64511691 6.07076458,6.08593568 L7.95247426,5.20848005 Z M7.97022908,6.1745387 L6.66180668,6.80320284 L6.22511093,7.98869791 L6.76515098,9.18465078 L8.20115597,9.72422251 L9.37108183,9.17867712 L9.81606296,7.84790136 L9.2446553,6.62251367 L7.97022908,6.1745387 Z" id="多边形" fill="#00AFB7" fill-rule="nonzero" transform="translate(7.994830, 7.948518) rotate(25.000000) translate(-7.994830, -7.948518) "></path>
                    </g>
                </g>
            </g>
        </g>
    </g>
</svg>