<?xml version="1.0" encoding="UTF-8"?>
<svg width="18px" height="18px" viewBox="0 0 18 18" version="1.1" xmlns="http://www.w3.org/2000/svg" xmlns:xlink="http://www.w3.org/1999/xlink">
    <!-- Generator: Sketch 64 (93537) - https://sketch.com -->
    <title>我的需求</title>
    <desc>Created with Sketch.</desc>
    <g id="页面-2" stroke="none" stroke-width="1" fill="none" fill-rule="evenodd">
        <g id="我的" transform="translate(-24.000000, -463.000000)" fill="#4E4E4E">
            <g id="编组备份-4" transform="translate(24.000000, 461.000000)">
                <g id="我的需求" transform="translate(0.000000, 2.000000)">
                    <path d="M14.44,3 C15.2475294,3 15.916872,3.54809689 15.9928239,4.24306941 L16,4.375 L16,12.625 C16,13.3367647 15.3781592,13.9267301 14.5896813,13.9936749 L14.44,14 L13,14 L10.8123475,15.750122 C10.6558252,15.8753398 10.4428292,15.8932281 10.2701716,15.8037868 L10.1876525,15.750122 L8,14 L3.56,14 C2.75247059,14 2.08312803,13.4519031 2.00717606,12.7569306 L2,12.625 L2,4.375 C2,3.66323529 2.62184083,3.0732699 3.41031875,3.00632506 L3.56,3 L14.44,3 Z M14.0238095,4.5 L3.97619048,4.5 C3.71875,4.5 3.5,4.67864583 3.5,4.88888889 L3.5,4.88888889 L3.5,12.1111111 C3.5,12.3213542 3.71875,12.5 3.97619048,12.5 L3.97619048,12.5 L8.2,12.5 L10.4267002,14.1407265 L10.482945,14.1719176 C10.5616966,14.2031086 10.6527485,14.1927116 10.7232998,14.1407265 L10.7232998,14.1407265 L12.95,12.5 L14.0238095,12.5 C14.28125,12.5 14.5,12.3213542 14.5,12.1111111 L14.5,12.1111111 L14.5,4.88888889 C14.5,4.67864583 14.28125,4.5 14.0238095,4.5 L14.0238095,4.5 Z" id="形状结合" fill-rule="nonzero"></path>
                    <rect id="矩形" opacity="0.504185268" x="5.5" y="6" width="7" height="1.5" rx="0.75"></rect>
                    <rect id="矩形" opacity="0.504185268" x="5.5" y="9" width="5" height="1.5" rx="0.75"></rect>
                </g>
            </g>
        </g>
    </g>
</svg>