<?xml version="1.0" encoding="UTF-8"?>
<svg width="18px" height="18px" viewBox="0 0 18 18" version="1.1" xmlns="http://www.w3.org/2000/svg" xmlns:xlink="http://www.w3.org/1999/xlink">
    <!-- Generator: Sketch 64 (93537) - https://sketch.com -->
    <title>我的发送</title>
    <desc>Created with Sketch.</desc>
    <g id="页面-2" stroke="none" stroke-width="1" fill="none" fill-rule="evenodd">
        <g id="我的" transform="translate(-24.000000, -401.000000)" fill-rule="nonzero">
            <g id="编组备份-3" transform="translate(24.000000, 399.000000)">
                <rect id="矩形" fill="#000000" opacity="0" x="0" y="2" width="18" height="18"></rect>
                <g id="我的发送" transform="translate(2.000000, 5.000000)" fill="#4E4E4E">
                    <path d="M12.5,1.9375 L12.5,10.0625 C12.5,10.2990234 12.28125,10.5 12.0238095,10.5 L1.97619048,10.5 C1.71875,10.5 1.5,10.2990234 1.5,10.0625 L1.5,1.9375 C1.5,1.70097656 1.71875,1.5 1.97619048,1.5 L12.0238095,1.5 C12.28125,1.5 12.5,1.70097656 12.5,1.9375 Z M12.44,0 L1.56,0 C0.702,0 0,0.675 0,1.5 L0,10.5 C0,11.325 0.702,12 1.56,12 L12.44,12 C13.298,12 14,11.325 14,10.5 L14,1.5 C14,0.675 13.298,0 12.44,0 Z" id="形状"></path>
                    <path d="M9.72270304,3.83402799 C9.95246738,3.68085176 10.2629021,3.74293869 10.4160783,3.97270304 C10.5522349,4.17693801 10.5183071,4.4449125 10.3477158,4.60952153 L10.2774032,4.66607828 L7.27740323,6.66607828 C7.13744515,6.75938368 6.96217381,6.77493457 6.81044464,6.71273098 L6.72270304,6.66607828 L3.72270304,4.66607828 C3.49293869,4.51290205 3.43085176,4.20246738 3.58402799,3.97270304 C3.72018464,3.76846807 3.98059487,3.69671895 4.19815371,3.79087668 L4.27740323,3.83402799 L7.00005314,5.64805314 L9.72270304,3.83402799 Z" id="路径-3" stroke="#4E4E4E" stroke-width="0.5" opacity="0.497930618"></path>
                </g>
            </g>
        </g>
    </g>
</svg>