<?xml version="1.0" encoding="UTF-8"?>
<svg width="16px" height="16px" viewBox="0 0 16 16" version="1.1" xmlns="http://www.w3.org/2000/svg" xmlns:xlink="http://www.w3.org/1999/xlink">
    <!-- Generator: Sketch 64 (93537) - https://sketch.com -->
    <title>好友</title>
    <desc>Created with Sketch.</desc>
    <g id="页面-2" stroke="none" stroke-width="1" fill="none" fill-rule="evenodd">
        <g id="首页" transform="translate(-215.000000, -431.000000)">
            <rect fill="#FFFFFF" x="0" y="0" width="375" height="812"></rect>
            <g id="编组-5" transform="translate(10.000000, 322.000000)">
                <g id="编组-3备份-2" transform="translate(205.000000, 107.000000)">
                    <rect id="矩形" x="0" y="1" width="16" height="16"></rect>
                    <g id="好友" transform="translate(1.000000, 4.000000)" fill-rule="nonzero">
                        <path d="M12.95,11.2 C12.8975,11.2 12.83625,11.1835294 12.78375,11.1588235 L11.865,10.7058823 C11.20875,11.0270588 10.47375,11.2 9.7125,11.2 C7.35000001,11.2 5.42500001,9.57764706 5.42500001,7.57647059 C5.42500001,5.57529412 7.35000001,3.95294117 9.7125,3.95294117 C12.075,3.95294117 14,5.57529412 14,7.57647059 C14,8.37529412 13.685,9.15764706 13.1075,9.79176471 L13.29125,10.8211765 C13.3175,10.9447059 13.25625,11.0682353 13.15125,11.1423529 C13.09,11.1752941 13.02,11.2 12.95,11.2 L12.95,11.2 Z M9.72000001,4.8 C7.84585367,4.8 6.32,6.05222222 6.32,7.6 C6.32,9.14777778 7.84585366,10.4 9.72000001,10.4 C10.3917073,10.4 11.0385366,10.2366667 11.5941463,9.93333333 C11.6936585,9.87888888 11.8180488,9.87888888 11.917561,9.92555555 L12.3487805,10.1355555 L12.257561,9.63777778 C12.2409756,9.54444444 12.2741463,9.44333334 12.3404878,9.37333332 C12.8380488,8.87555554 13.12,8.23777777 13.12,7.59222222 C13.12,6.05222222 11.5941463,4.8 9.72000001,4.8 L9.72000001,4.8 Z M1.20750001,8.71294117 C1.13750001,8.71294117 1.05875001,8.68823529 0.997500005,8.64705882 C0.892500001,8.57294117 0.839999999,8.44941175 0.857499999,8.32588235 L1.09375001,7.04117646 C0.384999998,6.27529411 0,5.3282353 0,4.35647059 C0,1.9517647 2.31875001,0 5.1625,0 C6.51875,0 7.79625,0.43647059 8.7675,1.24352941 C9.7475,2.05058824 10.29875,3.12941176 10.325,4.29058823 C10.325,4.38117647 10.29,4.47176471 10.22,4.53764706 C10.15,4.60352942 10.05375,4.6364706 9.9575,4.62823529 C9.86999999,4.61999999 9.79124999,4.61999999 9.72125,4.61999999 C7.74375001,4.61999999 6.13375,5.94588235 6.13375,7.58470588 C6.13375,7.80705882 6.16875,8.03764706 6.23,8.25999999 C6.25625001,8.35058823 6.23875,8.44941177 6.18625,8.53176471 C6.13375,8.61411766 6.0375,8.66352942 5.94124999,8.6717647 C5.6875,8.70470588 5.43374999,8.72117647 5.18,8.72117647 C4.24374999,8.72117647 3.34249999,8.50705883 2.54625,8.11176471 L1.39125,8.68823529 C1.32125,8.69647058 1.26,8.71294117 1.20750001,8.71294117 Z M2.63207964,7.2583364 C2.69092919,7.2583364 2.74977875,7.27392452 2.80022123,7.29730669 C3.58207964,7.71818601 4.50685841,7.92083161 5.44845133,7.86627319 C5.42323009,7.71818601 5.41482301,7.57009886 5.41482301,7.42201168 C5.41482301,5.55923098 7.20553098,4.03938898 9.425,3.99262461 C9.18960178,2.24675484 7.35685841,0.875 5.16261061,0.875 C2.80022123,0.875 0.875,2.44160637 0.875,4.37453363 C0.875,5.18511603 1.22809734,5.9801103 1.85862831,6.60363522 C1.93429203,6.67378177 1.95951327,6.77510458 1.94269911,6.86863332 L1.80818583,7.61686323 L2.48075221,7.28951263 C2.53119469,7.27392451 2.58163717,7.25833638 2.63207964,7.2583364 L2.63207964,7.2583364 Z" id="形状" fill="#4E4E4E"></path>
                        <path d="M7.90413659,6.24630229 C8.08463584,6.14209528 8.30703083,6.14209528 8.48753008,6.24630229 C8.66802932,6.35050929 8.77920388,6.54308785 8.77916667,6.75148036 C8.77920388,6.95987288 8.66802932,7.15245144 8.48753008,7.25665844 C8.30703083,7.36086545 8.08463584,7.36086545 7.90413659,7.25665844 C7.72363734,7.15245144 7.61246278,6.95987288 7.6125,6.75148036 C7.61246278,6.54308785 7.72363734,6.35050929 7.90413659,6.24630229 Z M11.3458333,6.16823528 C11.6679994,6.16823528 11.9291667,6.42940251 11.9291667,6.75156862 C11.9291667,7.07373472 11.6679994,7.33490195 11.3458333,7.33490195 C11.0236672,7.33490195 10.7625,7.07373472 10.7625,6.75156862 C10.7625,6.42940251 11.0236672,6.16823528 11.3458333,6.16823528 Z M3.04788464,2.46978293 C3.25545747,2.34994526 3.51120919,2.34994526 3.71878202,2.46978293 C3.92635485,2.5896206 4.05420629,2.81108555 4.05416666,3.05073801 C4.05420629,3.29039046 3.92635485,3.51185542 3.71878202,3.63169309 C3.51120919,3.75153076 3.25545747,3.75153076 3.04788464,3.63169309 C2.84031181,3.51185542 2.71246037,3.29039046 2.7125,3.05073801 C2.71246037,2.81108555 2.84031181,2.5896206 3.04788464,2.46978293 Z M6.72291665,2.4698746 C6.93047321,2.35004177 7.18619344,2.35004177 7.39375,2.4698746 C7.60130656,2.58970744 7.72916666,2.81116765 7.72916666,3.05083331 C7.72916666,3.29049897 7.60130656,3.51195918 7.39375,3.63179202 C7.18619344,3.75162485 6.93047321,3.75162485 6.72291665,3.63179202 C6.51536009,3.51195918 6.38749999,3.29049897 6.38749999,3.05083331 C6.38749999,2.81116765 6.51536009,2.58970744 6.72291665,2.4698746 Z" id="形状结合" fill="#00AFB7"></path>
                    </g>
                </g>
            </g>
        </g>
    </g>
</svg>