<?xml version="1.0" encoding="UTF-8"?>
<svg width="19px" height="19px" viewBox="0 0 19 19" version="1.1" xmlns="http://www.w3.org/2000/svg" xmlns:xlink="http://www.w3.org/1999/xlink">
    <!-- Generator: Sketch 64 (93537) - https://sketch.com -->
    <title>在线客服</title>
    <desc>Created with Sketch.</desc>
    <g id="页面-2" stroke="none" stroke-width="1" fill="none" fill-rule="evenodd">
        <g id="我的" transform="translate(-24.000000, -524.000000)" fill-rule="nonzero">
            <g id="编组备份-5" transform="translate(24.000000, 523.000000)">
                <g id="编组-2" transform="translate(0.000000, 1.000000)">
                    <path d="M13.9570771,11.8321593 C14.3190753,11.8192308 14.6189121,12.1030763 14.632,12.474 L14.632,12.474 L14.6284502,12.6306384 C14.6060126,13.0578955 14.4758212,13.5588727 14.1422992,14.0683931 C14.0438825,14.2187438 13.9307994,14.3614375 13.8008936,14.4966342 C13.2739966,15.0363822 12.5549776,15.37618 11.6587671,15.5154623 L11.6624875,15.4685 C11.6611117,15.7436631 11.4376603,15.966 11.1624938,15.966 L9.17,15.966 C8.89385763,15.966 8.67,15.7421424 8.67,15.466 L8.67,14.466 C8.67,14.1898576 8.89385763,13.966 9.17,13.966 L11.1674938,13.966 C11.3422505,13.966 11.4960673,14.0556549 11.5854578,14.1914784 C12.1295504,14.0896085 12.5496662,13.8855361 12.8439561,13.5864996 C12.9128637,13.5165934 12.9738637,13.4425638 13.0274592,13.3648659 C13.2468918,13.0467525 13.3165337,12.7348738 13.3160038,12.5002956 L13.3160038,12.5002956 L13.3200103,12.4098847 C13.3568534,12.0927018 13.6278907,11.8439159 13.9570771,11.8321593 Z" id="形状结合" fill="#A5A5A5"></path>
                    <path d="M5.034671,8.466 C5.35236273,8.466 5.61729517,8.68546273 5.66283915,8.969469 L5.66975406,9.05645226 L5.66960033,12.8675408 C5.68105484,13.165728 5.44493493,13.416351 5.13681333,13.4594545 L5.04239237,13.466 L4.64088089,13.466 C3.6010459,13.466 2.75056847,12.7215388 2.67540076,11.7770339 L2.67,11.6408026 L2.67,10.2911974 C2.67,9.33471606 3.47423999,8.54120312 4.48710901,8.47104178 L4.63315951,8.466 L5.034671,8.466 Z M13.7066795,8.466 C14.7405289,8.466 15.5895591,9.2116123 15.6646076,10.1551231 L15.67,10.2911974 L15.67,11.6408026 C15.67,12.6019188 14.867963,13.3912182 13.8530514,13.4609869 L13.7066795,13.466 L13.3051351,13.466 C12.9874174,13.466 12.7224632,13.2465373 12.6769155,12.962531 L12.67,12.8755477 L12.67,9.05645226 C12.67,8.76108648 12.9060707,8.51477232 13.2115694,8.47242896 L13.3051351,8.466 L13.7066795,8.466 Z" id="形状结合" fill="#4E4E4E"></path>
                    <path d="M9.17,2.966 C12.2075661,2.966 14.67,5.42843388 14.67,8.466 L14.67,10.966 L13.17,10.966 L13.17,8.466 C13.17,6.32380461 11.4860315,4.57492112 9.36964034,4.47089531 L9.17,4.466 C6.960861,4.466 5.17,6.256861 5.17,8.466 L5.17,8.466 L5.17,10.966 L3.67,10.966 L3.67,8.466 C3.67,5.42843388 6.13243388,2.966 9.17,2.966 Z" id="形状结合" fill="#4E4E4E"></path>
                </g>
            </g>
        </g>
    </g>
</svg>