<?xml version="1.0" encoding="UTF-8"?>
<svg width="20px" height="20px" viewBox="0 0 20 20" version="1.1" xmlns="http://www.w3.org/2000/svg" xmlns:xlink="http://www.w3.org/1999/xlink">
    <!-- Generator: Sketch 64 (93537) - https://sketch.com -->
    <title>我的</title>
    <desc>Created with Sketch.</desc>
    <g id="页面-2" stroke="none" stroke-width="1" fill="none" fill-rule="evenodd">
        <g id="首页" transform="translate(-303.000000, -736.000000)" fill-rule="nonzero">
            <g id="tabbar" transform="translate(0.000000, 728.000000)">
                <g id="我的" transform="translate(303.000000, 8.000000)">
                    <rect id="矩形" fill="#000000" opacity="0" x="2" y="2" width="16" height="16"></rect>
                    <path d="M5.5,7 C5.5,4.51471862 7.51471862,2.5 10,2.5 L14.5,2.5 L14.5,7 C14.5,8.19347419 14.0258942,9.33806681 13.1819805,10.1819805 C12.3380668,11.0258942 11.1934742,11.5 10,11.5 C7.51471862,11.5 5.5,9.48528137 5.5,7 Z M10.0000019,4 C8.34357293,4 7.00060461,5.34248465 6.99999147,6.99891351 C6.9994069,8.65534237 8.34140417,9.99879674 9.99783271,10 C11.6542612,10.0011941 12.9982015,8.65968342 12.9999915,7.00325543 L12.9999915,4.00651466 L10.0000019,4 Z M3,15 C3,13.0670034 4.56700338,11.5 6.5,11.5 L13.5,11.5 C15.4329966,11.5 17,13.0670034 17,15 C17,16.9329966 15.4329966,18.5 13.5,18.5 L6.5,18.5 C4.56700338,18.5 3,16.9329966 3,15 Z M4.5,15 C4.5,16.1045695 5.3954305,17 6.5,17 L13.5,17 C14.6045695,17 15.5,16.1045695 15.5,15 C15.5,13.8954305 14.6045695,13 13.5,13 L6.5,13 C5.3954305,13 4.5,13.8954305 4.5,15 Z" id="形状" fill="#999999"></path>
                </g>
            </g>
        </g>
    </g>
</svg>