<?xml version="1.0" encoding="UTF-8"?>
<svg width="16px" height="16px" viewBox="0 0 16 16" version="1.1" xmlns="http://www.w3.org/2000/svg" xmlns:xlink="http://www.w3.org/1999/xlink">
    <!-- Generator: Sketch 64 (93537) - https://sketch.com -->
    <title>女</title>
    <desc>Created with Sketch.</desc>
    <g id="页面-2" stroke="none" stroke-width="1" fill="none" fill-rule="evenodd">
        <g id="我的" transform="translate(-68.000000, -149.000000)" fill="#FF7600" fill-rule="nonzero">
            <g id="性别-女" transform="translate(63.500000, 144.500000)">
                <g id="编组-5" transform="translate(4.500000, 4.500000)">
                    <path d="M8,2 C10.4852814,2 12.5,4.01471863 12.5,6.5 C12.5,8.98528137 10.4852814,11 8,11 C5.51471863,11 3.5,8.98528137 3.5,6.5 C3.5,4.01471863 5.51471863,2 8,2 Z M8,3.49984766 C6.34314575,3.49984766 5,4.84299341 5,6.49984766 C5,8.15670191 6.34314575,9.49984766 8,9.49984766 C9.65685425,9.49984766 11,8.15670191 11,6.49984766 C11,4.84299341 9.65685425,3.49984766 8,3.49984766 Z M7.25,10.7498477 L8.75,10.7498477 L8.75,15.2498477 L7.25,15.2498477 L7.25,10.7498477 Z M5,11.7498477 L11,11.7498477 L11,13.2498477 L5,13.2498477 L5,11.7498477 Z" id="形状结合"></path>
                </g>
            </g>
        </g>
    </g>
</svg>