<?xml version="1.0" encoding="UTF-8"?>
<svg width="19px" height="19px" viewBox="0 0 19 19" version="1.1" xmlns="http://www.w3.org/2000/svg" xmlns:xlink="http://www.w3.org/1999/xlink">
    <!-- Generator: Sketch 64 (93537) - https://sketch.com -->
    <title>订阅</title>
    <desc>Created with Sketch.</desc>
    <g id="页面-2" stroke="none" stroke-width="1" fill="none" fill-rule="evenodd">
        <g id="我的" transform="translate(-24.000000, -277.000000)">
            <g id="编组备份" transform="translate(24.000000, 276.000000)">
                <g id="订阅" transform="translate(0.000000, 1.000000)">
                    <rect id="矩形" x="0.5" y="0.5" width="18" height="18"></rect>
                    <path d="M14,2 C15.1045695,2 16,2.8954305 16,4 L16,15 C16,16.1045695 15.1045695,17 14,17 L5,17 C3.8954305,17 3,16.1045695 3,15 L3,4 C3,2.8954305 3.8954305,2 5,2 L14,2 Z M14,3.5 L5,3.5 C4.75454011,3.5 4.55039163,3.67687516 4.50805567,3.91012437 L4.5,4 L4.5,15 C4.5,15.2454599 4.67687516,15.4496084 4.91012437,15.4919443 L5,15.5 L14,15.5 C14.2454599,15.5 14.4496084,15.3231248 14.4919443,15.0898756 L14.5,15 L14.5,4 C14.5,3.75454011 14.3231248,3.55039163 14.0898756,3.50805567 L14,3.5 Z" id="矩形" fill="#4C4C4C" fill-rule="nonzero"></path>
                    <path d="M11,2.30548564 L11,7.26148352 C11,7.53762589 10.7761424,7.76148352 10.5,7.76148352 C10.4363903,7.76148352 10.3733648,7.74934592 10.3143047,7.72572186 L8.68569534,7.07427814 C8.56648982,7.02659593 8.43351018,7.02659593 8.31430466,7.07427814 L6.68569534,7.72572186 C6.42930358,7.82827857 6.13831836,7.70357062 6.03576165,7.44717886 C6.0121376,7.38811872 6,7.32509323 6,7.26148352 L6,2.30548564 L11,2.30548564 Z M9.75,3.555 L7.25,3.555 L7.25,6.153 L7.85006632,5.91368227 C8.21513321,5.76765552 8.61711046,5.74940217 8.99140494,5.85892224 L9.14993368,5.91368227 L9.75,6.154 L9.75,3.555 Z" id="矩形" fill="#4C4C4C" fill-rule="nonzero"></path>
                    <rect id="矩形" fill="#A6A6A6" x="7.75" y="11" width="5" height="1.5" rx="0.75"></rect>
                    <rect id="矩形备份-3" fill="#A6A6A6" x="9.5" y="9.25" width="1.5" height="5" rx="0.75"></rect>
                </g>
            </g>
        </g>
    </g>
</svg>