<?xml version="1.0" encoding="UTF-8"?>
<svg width="20px" height="20px" viewBox="0 0 20 20" version="1.1" xmlns="http://www.w3.org/2000/svg" xmlns:xlink="http://www.w3.org/1999/xlink">
    <!-- Generator: Sketch 64 (93537) - https://sketch.com -->
    <title>首页</title>
    <desc>Created with Sketch.</desc>
    <g id="页面-2" stroke="none" stroke-width="1" fill="none" fill-rule="evenodd">
        <g id="首页" transform="translate(-53.000000, -736.000000)">
            <g id="tabbar" transform="translate(0.000000, 728.000000)">
                <g id="首页" transform="translate(53.000000, 8.000000)">
                    <rect id="矩形" fill="#000000" fill-rule="nonzero" opacity="0" x="1" y="1" width="17.982439" height="17.982439"></rect>
                    <polygon id="矩形" fill="#7FD7DB" transform="translate(10.000000, 10.000000) rotate(135.000000) translate(-10.000000, -10.000000) " points="5 5 15 15 5 15"></polygon>
                    <path d="M10.1106202,1.00042246 C10.3451821,1.01464773 10.5756359,1.11158981 10.754537,1.29116012 L10.754537,1.29116012 L19.2095145,9.77776269 C19.5982805,10.1679828 19.5982805,10.7991137 19.2095145,11.1893339 L19.2095145,11.1893339 C19.2073248,11.1915318 19.2064497,11.1924068 19.205573,11.1932803 C18.816504,11.5808994 18.1868739,11.5797241 17.7992547,11.1906551 L17.7992547,11.1906551 L10,3.362 L2.20074529,11.1906551 C1.81312614,11.5797241 1.18349597,11.5808994 0.794426955,11.1932803 C0.793550257,11.1924068 0.792675191,11.1915318 0.79180176,11.1906551 L0.790485488,11.1893339 C0.401719505,10.7991137 0.401719505,10.1679828 0.790485488,9.77776269 L9.24546297,1.29116012 C9.42436412,1.11158981 9.65481791,1.01464773 9.88937983,1.00042246 Z" id="形状结合" fill="#7FD7DB"></path>
                    <rect id="矩形" fill="#00AFB7" x="3" y="8.5" width="14" height="9" rx="1"></rect>
                    <path d="M9.25,13.5 C9.66421356,13.5 10,13.8357864 10,14.25 L10,17.5 L10,17.5 L8.5,17.5 L8.5,14.25 C8.5,13.8357864 8.83578644,13.5 9.25,13.5 Z" id="矩形" fill="#FFFFFF"></path>
                    <rect id="矩形备份-5" fill="#FFFFFF" x="8.5" y="13.5" width="4.5" height="1.5" rx="0.75"></rect>
                </g>
            </g>
        </g>
    </g>
</svg>