<?xml version="1.0" encoding="UTF-8"?>
<svg width="19px" height="18px" viewBox="0 0 19 18" version="1.1" xmlns="http://www.w3.org/2000/svg" xmlns:xlink="http://www.w3.org/1999/xlink">
    <!-- Generator: Sketch 64 (93537) - https://sketch.com -->
    <title>我的收藏</title>
    <desc>Created with Sketch.</desc>
    <g id="页面-2" stroke="none" stroke-width="1" fill="none" fill-rule="evenodd">
        <g id="我的" transform="translate(-24.000000, -339.000000)" fill="#4E4E4E" fill-rule="nonzero">
            <g id="编组备份-2" transform="translate(24.000000, 337.000000)">
                <g id="我的" transform="translate(0.000000, 2.000000)">
                    <path d="M9.4993873,15.9999911 C9.26516847,16.000971 9.03770671,15.9212891 8.85501648,15.7742532 L6.70029501,14.0641864 C3.67277497,11.6427318 2.42494577,10.1447134 2.09423694,8.52357006 C1.82836921,7.21877008 2.13108864,5.86218834 2.92612307,4.79562451 C3.6793307,3.78628145 4.82162432,3.14201905 6.07267419,3.02094543 C7.32372407,2.89987181 8.567725,3.31319431 9.4993873,4.15947967 C10.3221783,3.40976194 11.3949143,2.99615009 12.5064511,3.00002701 C14.9866126,3.00382124 16.996245,5.0197985 17,7.5077904 C17,9.61117252 15.8578612,11.1981145 12.301889,14.0470857 L10.1539862,15.7571525 C9.97091579,15.912582 9.73921892,15.9985321 9.4993873,15.9999911 Z M6.54802208,4.50683447 L6.29472714,4.50683447 C5.43417969,4.57513219 4.6458508,5.01569581 4.13505459,5.71378399 C3.58586692,6.45277999 3.3795198,7.39279721 3.56847384,8.29485056 C3.77510918,9.2978557 4.54165962,10.4914318 7.59786291,12.9287343 L9.5009077,14.4466154 L11.4039525,12.9220476 C14.5001497,10.4579983 15.5,9.14071824 15.5,7.57268685 C15.5013769,6.31949401 14.7431144,5.19133311 13.584484,4.72273962 C12.4258536,4.25414613 11.099605,4.5392527 10.2341299,5.4429726 C9.82590607,5.84437528 9.17257649,5.84437528 8.7643527,5.4429726 C8.18596575,4.84156968 7.38771358,4.50338524 6.55468773,4.50683447 L6.54802208,4.50683447 Z" id="形状"></path>
                    <path d="M7.74113271,5.97018681 C8.05975853,5.97018681 8.31805579,6.23474582 8.31805579,6.5610959 C8.31805579,6.88744598 8.05975853,7.15200499 7.74113271,7.15200499 C6.85659913,7.15200499 6.12969137,7.843242 6.04723348,8.72709018 L6.03944362,8.90909091 C6.03944362,9.23544099 5.78114636,9.5 5.46252055,9.5 C5.1792976,9.5 4.94374166,9.29096572 4.89489247,9.01530757 L4.88559747,8.89494714 C4.88559747,7.27964661 6.16406414,5.97018681 7.74113271,5.97018681 Z" id="路径-2" fill-opacity="0.502977491"></path>
                </g>
            </g>
        </g>
    </g>
</svg>