<?xml version="1.0" encoding="UTF-8"?>
<svg width="16px" height="16px" viewBox="0 0 16 16" version="1.1" xmlns="http://www.w3.org/2000/svg" xmlns:xlink="http://www.w3.org/1999/xlink">
    <!-- Generator: Sketch 64 (93537) - https://sketch.com -->
    <title>icon/状态/清除</title>
    <desc>Created with Sketch.</desc>
    <g id="页面-2" stroke="none" stroke-width="1" fill="none" fill-rule="evenodd">
        <g id="搜索-历史搜索" transform="translate(-283.000000, -113.000000)" fill="#CAC1C1" fill-rule="nonzero">
            <g id="icon/状态/清除" transform="translate(283.000000, 113.000000)">
                <path d="M8,0 C12.418278,0 16,3.581722 16,8 C16,12.418278 12.418278,16 8,16 C3.581722,16 0,12.418278 0,8 C0,3.581722 3.581722,0 8,0 Z M11.1426968,4.85730319 C10.7955641,4.51017049 10.2327508,4.51017049 9.88561808,4.85730319 L9.88561808,4.85730319 L8,6.7421356 L6.11438192,4.85730319 C5.76724921,4.51017049 5.2044359,4.51017049 4.85730319,4.85730319 C4.51017049,5.2044359 4.51017049,5.76724921 4.85730319,6.11438192 L4.85730319,6.11438192 L6.74276414,7.99937146 L4.85730319,9.88561808 C4.51017049,10.2327508 4.51017049,10.7955641 4.85730319,11.1426968 C5.2044359,11.4898295 5.76724921,11.4898295 6.11438192,11.1426968 L6.11438192,11.1426968 L8,9.25660732 L9.88561808,11.1426968 C10.2327508,11.4898295 10.7955641,11.4898295 11.1426968,11.1426968 C11.4898295,10.7955641 11.4898295,10.2327508 11.1426968,9.88561808 L11.1426968,9.88561808 L9.25723586,7.99937146 L11.1426968,6.11438192 C11.4898295,5.76724921 11.4898295,5.2044359 11.1426968,4.85730319 Z" id="Combined-Shape"></path>
            </g>
        </g>
    </g>
</svg>