<?xml version="1.0" encoding="UTF-8"?>
<svg width="16px" height="16px" viewBox="0 0 16 16" version="1.1" xmlns="http://www.w3.org/2000/svg" xmlns:xlink="http://www.w3.org/1999/xlink">
    <!-- Generator: Sketch 64 (93537) - https://sketch.com -->
    <title>男</title>
    <desc>Created with Sketch.</desc>
    <g id="页面-2" stroke="none" stroke-width="1" fill="none" fill-rule="evenodd">
        <g id="我的" transform="translate(-101.000000, -174.000000)" fill="#00AFB7" fill-rule="nonzero">
            <g id="性别-男" transform="translate(97.000000, 170.000000)">
                <g id="编组-6" transform="translate(4.000000, 4.000000)">
                    <path d="M14.0394473,3.11439453 C13.9540922,3.03123626 13.8460383,2.97519503 13.7288945,2.9533291 L10.7244473,2.71139453 C10.3995091,2.70331887 10.1260768,2.95305985 10.1047507,3.27739801 C10.0834247,3.60173617 10.321802,3.88512995 10.645,3.9196709 L12.2266709,4.08072363 L10.1755527,6.1751709 C9.60134642,5.6870724 8.92783047,5.32973124 8.20172363,5.12793457 C7.02986941,4.8684388 5.80290129,5.08899699 4.7947822,5.74036193 C3.78666312,6.39172687 3.08135028,7.41965221 2.8363291,8.59461816 C2.25284677,11.0652868 3.76662647,13.5453099 6.23077637,14.1557363 C7.41279819,14.4274335 8.65441035,14.2134521 9.67729351,13.5617582 C10.7001767,12.9100643 11.4187722,11.8751685 11.672,10.6890527 C11.9506555,9.47138032 11.7239608,8.19276032 11.0436709,7.14510547 L12.9358945,5.1308291 L12.8564473,6.58105273 C12.8417243,6.90926016 13.0857139,7.19191131 13.4125527,7.22527637 C13.7393975,7.23625543 14.0166678,6.98735413 14.0408945,6.66122363 L14.2792236,3.60044727 C14.2843271,3.40994118 14.1951607,3.22917171 14.0408945,3.11727637 L14.0394473,3.11439453 Z M10.3344473,10.3640527 C10.1496228,11.2019198 9.63550695,11.93021 8.90788445,12.3849042 C8.18026196,12.8395984 7.30031262,12.9824651 6.46621094,12.7813291 C4.72572506,12.34041 3.66801246,10.5767011 4.09876367,8.8336709 C4.28287364,7.99574214 4.79665694,7.26725531 5.52418429,6.81258505 C6.25171164,6.35791479 7.13168194,6.2153714 7.96554004,6.41711816 C9.66933964,6.9062743 10.7041448,8.63040614 10.3344473,10.3640527 L10.3344473,10.3640527 Z" id="形状"></path>
                </g>
            </g>
        </g>
    </g>
</svg>