<?xml version="1.0" encoding="UTF-8"?>
<svg width="20px" height="20px" viewBox="0 0 20 20" version="1.1" xmlns="http://www.w3.org/2000/svg" xmlns:xlink="http://www.w3.org/1999/xlink">
    <!-- Generator: Sketch 64 (93537) - https://sketch.com -->
    <title>我的</title>
    <desc>Created with Sketch.</desc>
    <g id="页面-2" stroke="none" stroke-width="1" fill="none" fill-rule="evenodd">
        <g id="首页-暂无内容" transform="translate(-303.000000, -736.000000)">
            <g id="tabbar" transform="translate(0.000000, 728.000000)">
                <g id="我的" transform="translate(303.000000, 4.000000)">
                    <rect id="矩形" fill="#000000" fill-rule="nonzero" opacity="0" x="2" y="6" width="16" height="16"></rect>
                    <path d="M5.5,11 C5.5,8.51471862 7.51471862,6.5 10,6.5 L14.5,6.5 L14.5,11 C14.5,12.1934742 14.0258942,13.3380668 13.1819805,14.1819805 C12.3380668,15.0258942 11.1934742,15.5 10,15.5 C7.51471862,15.5 5.5,13.4852814 5.5,11 Z M10.0000019,8 C8.34357293,8 7.00060461,9.34248465 6.99999147,10.9989135 C6.9994069,12.6553424 8.34140417,13.9987967 9.99783271,14 C11.6542612,14.0011941 12.9982015,12.6596834 12.9999915,11.0032554 L12.9999915,8.00651466 L10.0000019,8 Z M3,19 C3,17.0670034 4.56700338,15.5 6.5,15.5 L13.5,15.5 C15.4329966,15.5 17,17.0670034 17,19 C17,20.9329966 15.4329966,22.5 13.5,22.5 L6.5,22.5 C4.56700338,22.5 3,20.9329966 3,19 Z M4.5,19 C4.5,20.1045695 5.3954305,21 6.5,21 L13.5,21 C14.6045695,21 15.5,20.1045695 15.5,19 C15.5,17.8954305 14.6045695,17 13.5,17 L6.5,17 C5.3954305,17 4.5,17.8954305 4.5,19 Z" id="形状" fill="#999999" fill-rule="nonzero"></path>
                    <g id="编组-4" transform="translate(16.000000, 0.000000)" fill="#FF5B60">
                        <rect id="矩形" x="0" y="0" width="24" height="18" rx="9"></rect>
                    </g>
                </g>
            </g>
        </g>
    </g>
</svg>