<?xml version="1.0" encoding="UTF-8"?>
<svg width="16px" height="16px" viewBox="0 0 16 16" version="1.1" xmlns="http://www.w3.org/2000/svg" xmlns:xlink="http://www.w3.org/1999/xlink">
    <!-- Generator: Sketch 64 (93537) - https://sketch.com -->
    <title>搜索</title>
    <desc>Created with Sketch.</desc>
    <g id="页面-2" stroke="none" stroke-width="1" fill="none" fill-rule="evenodd">
        <g id="首页" transform="translate(-23.000000, -234.000000)">
            <g id="编组-2" transform="translate(14.000000, 227.000000)">
                <g id="搜索" transform="translate(9.000000, 7.000000)">
                    <rect id="矩形" x="0" y="0" width="16" height="16"></rect>
                    <path d="M7.875,1.5 C11.3958153,1.5 14.25,4.35418472 14.25,7.875 C14.25,9.32880479 13.76336,10.6689487 12.9440895,11.7414223 L14.2794679,13.0773864 C14.6114135,13.409332 14.6114135,13.9475222 14.2794679,14.2794679 C13.9475222,14.6114135 13.409332,14.6114135 13.0773864,14.2794679 L11.7414223,12.9440895 C10.6689487,13.76336 9.32880479,14.25 7.875,14.25 C4.35418472,14.25 1.5,11.3958153 1.5,7.875 C1.5,4.35418472 4.35418472,1.5 7.875,1.5 Z M7.875,3.2 C5.29306879,3.2 3.2,5.29306879 3.2,7.875 C3.2,10.4569312 5.29306879,12.55 7.875,12.55 C10.4569312,12.55 12.55,10.4569312 12.55,7.875 C12.55,5.29306879 10.4569312,3.2 7.875,3.2 Z" id="Combined-Shape" fill="#AFAFB8" fill-rule="nonzero"></path>
                </g>
            </g>
        </g>
    </g>
</svg>