<?xml version="1.0" encoding="UTF-8"?>
<svg width="17px" height="16px" viewBox="0 0 17 16" version="1.1" xmlns="http://www.w3.org/2000/svg" xmlns:xlink="http://www.w3.org/1999/xlink">
    <!-- Generator: Sketch 64 (93537) - https://sketch.com -->
    <title>收藏</title>
    <desc>Created with Sketch.</desc>
    <g id="页面-2" stroke="none" stroke-width="1" fill="none" fill-rule="evenodd">
        <g id="首页" transform="translate(-33.000000, -430.000000)" fill-rule="nonzero">
            <g id="编组-5" transform="translate(10.000000, 322.000000)">
                <g id="编组-3" transform="translate(23.000000, 107.000000)">
                    <g id="收藏" transform="translate(0.000000, 0.500000)">
                        <path d="M8.49946899,14.4999924 C8.29647934,14.5008216 8.09934581,14.4333985 7.94101428,14.3089834 L6.07358901,12.8620039 C3.44973831,10.8130808 2.36828633,9.54552668 2.08167201,8.17379005 C1.85125332,7.06972853 2.11361015,5.92185167 2.80263999,5.01937458 C3.45541994,4.16531508 4.44540774,3.62016997 5.52965097,3.51772306 C6.61389419,3.41527614 7.69202833,3.76501057 8.49946899,4.48109818 C9.21255453,3.84672164 10.1422591,3.49674238 11.105591,3.50002285 C13.2550643,3.50323336 14.9967457,5.20906027 15,7.31428418 C15,9.09406906 14.0101464,10.4368661 10.9283038,12.8475341 L9.06678806,14.2945136 C8.90812702,14.4260309 8.70732306,14.4987579 8.49946899,14.4999924 Z M5.88152787,4.66052365 L5.65696406,4.66052365 C4.89402812,4.71964124 4.19511903,5.10098717 3.7422622,5.7052429 C3.25536865,6.34490789 3.07242738,7.15857413 3.23994845,7.93937936 C3.42314524,8.8075671 4.1027462,9.84071052 6.81228572,11.9504067 L8.49946899,13.2642642 L10.1866523,11.9446188 C12.9316492,9.81177093 13.8180869,8.67155103 13.8180869,7.31428418 C13.8193076,6.22953733 13.1470545,5.25301645 12.1198471,4.84740824 C11.0926396,4.44180002 9.9168268,4.68858443 9.14952209,5.47083221 C8.78760294,5.81828096 8.20838025,5.81828096 7.8464611,5.47083221 C7.33368032,4.95026594 6.62597353,4.65753805 5.88743744,4.66052365 L5.88152787,4.66052365 Z" id="形状" fill="#4E4E4E"></path>
                        <path d="M6.97564835,6.01323499 C7.25179072,6.01323499 7.47564835,6.23709262 7.47564835,6.51323499 C7.47564835,6.78937737 7.25179072,7.01323499 6.97564835,7.01323499 C6.20905258,7.01323499 5.57906585,7.59812785 5.50760235,8.34599939 L5.50085114,8.5 C5.50085114,8.77614237 5.27699352,9 5.00085114,9 C4.75539125,9 4.55124277,8.82312484 4.50890681,8.58987563 L4.50085114,8.4880322 C4.50085114,7.12123944 5.60885559,6.01323499 6.97564835,6.01323499 Z" id="路径-2" fill="#00AFB7"></path>
                    </g>
                </g>
            </g>
        </g>
    </g>
</svg>