<?xml version="1.0" encoding="UTF-8"?>
<svg width="20px" height="20px" viewBox="0 0 20 20" version="1.1" xmlns="http://www.w3.org/2000/svg" xmlns:xlink="http://www.w3.org/1999/xlink">
    <!-- Generator: Sketch 64 (93537) - https://sketch.com -->
    <title>历史</title>
    <desc>Created with Sketch.</desc>
    <g id="页面-2" stroke="none" stroke-width="1" fill="none" fill-rule="evenodd">
        <g id="搜索-历史搜索" transform="translate(-14.000000, -159.000000)" fill-rule="nonzero">
            <g id="编组" transform="translate(14.000000, 158.000000)">
                <g id="历史" transform="translate(0.000000, 1.000000)">
                    <rect id="矩形" fill="#000000" opacity="0" x="0" y="0" width="20" height="20"></rect>
                    <path d="M10,18 C5.581722,18 2,14.418278 2,10 C2,5.581722 5.581722,2 10,2 C14.418278,2 18,5.581722 18,10 C18,12.1217319 17.1571453,14.1565632 15.6568542,15.6568542 C14.1565632,17.1571453 12.1217319,18 10,18 Z M10,3.23076923 C6.26145708,3.23076923 3.23076923,6.26145708 3.23076923,10 C3.23076923,13.7385429 6.26145708,16.7692308 10,16.7692308 C13.7385429,16.7692308 16.7692308,13.7385429 16.7692308,10 C16.7692308,8.20468838 16.056046,6.48290804 14.786569,5.21343102 C13.517092,3.943954 11.7953116,3.23076923 10,3.23076923 Z" id="形状" fill="#9E9E9E"></path>
                    <path d="M12.6923077,11.8461538 L9,11.8461538 C8.66013246,11.8461538 8.38461538,11.5706368 8.38461538,11.2307692 L8.38461538,7.30769231 C8.38461538,6.96782477 8.66013246,6.69230769 9,6.69230769 C9.33986754,6.69230769 9.61538462,6.96782477 9.61538462,7.30769231 L9.61538462,10.6153846 L12.6923077,10.6153846 C13.0321752,10.6153846 13.3076923,10.8909017 13.3076923,11.2307692 C13.3076923,11.5706368 13.0321752,11.8461538 12.6923077,11.8461538 Z" id="路径" fill="#CECECE"></path>
                </g>
            </g>
        </g>
    </g>
</svg>