<?xml version="1.0" encoding="UTF-8"?>
<svg width="16px" height="16px" viewBox="0 0 16 16" version="1.1" xmlns="http://www.w3.org/2000/svg" xmlns:xlink="http://www.w3.org/1999/xlink">
    <!-- Generator: Sketch 64 (93537) - https://sketch.com -->
    <title>邮箱</title>
    <desc>Created with Sketch.</desc>
    <g id="页面-2" stroke="none" stroke-width="1" fill="none" fill-rule="evenodd">
        <g id="首页" transform="translate(-111.000000, -430.000000)" fill-rule="nonzero">
            <g id="编组-5" transform="translate(10.000000, 322.000000)">
                <g id="编组-3备份" transform="translate(101.000000, 107.000000)">
                    <g id="邮箱" transform="translate(0.000000, 1.000000)">
                        <rect id="矩形" fill="#000000" opacity="0" x="0" y="0" width="16" height="16"></rect>
                        <path d="M12.765625,4 C13.0359375,4 13.265625,4.2296875 13.265625,4.5 L13.265625,11.5 C13.265625,11.7703125 13.0359375,12 12.765625,12 L3.265625,12 C2.9953125,12 2.765625,11.7703125 2.765625,11.5 L2.765625,4.5 C2.765625,4.2296875 2.9953125,4 3.265625,4 L12.765625,4 M12.765625,3 L3.265625,3 C2.440625,3 1.765625,3.675 1.765625,4.5 L1.765625,11.5 C1.765625,12.325 2.440625,13 3.265625,13 L12.765625,13 C13.590625,13 14.265625,12.325 14.265625,11.5 L14.265625,4.5 C14.265625,3.675 13.590625,3 12.765625,3 Z" id="形状" fill="#4E4E4E"></path>
                        <path d="M10.7226499,5.58397485 C10.9524142,5.43079862 11.2628489,5.49288556 11.4160251,5.7226499 C11.5521818,5.92688487 11.518254,6.19485937 11.3476627,6.35946839 L11.2773501,6.41602515 L8.2773501,8.41602515 C8.13739201,8.50933054 7.96212067,8.52488144 7.8103915,8.46267784 L7.7226499,8.41602515 L4.7226499,6.41602515 C4.49288556,6.26284892 4.43079862,5.95241425 4.58397485,5.7226499 C4.7201315,5.51841493 4.98054173,5.44666581 5.19810057,5.54082354 L5.2773501,5.58397485 L8,7.398 L10.7226499,5.58397485 Z" id="路径-3" fill="#00AFB7"></path>
                    </g>
                </g>
            </g>
        </g>
    </g>
</svg>