<?xml version="1.0" encoding="UTF-8"?>
<svg width="144px" height="114px" viewBox="0 0 144 114" version="1.1" xmlns="http://www.w3.org/2000/svg" xmlns:xlink="http://www.w3.org/1999/xlink">
    <!-- Generator: Sketch 64 (93537) - https://sketch.com -->
    <title>编组</title>
    <desc>Created with Sketch.</desc>
    <defs>
        <path d="M0.21875,9.65345835 L0.21875,92.171529 C0.21875,95.4852375 2.9050415,98.171529 6.21875,98.171529 C6.47680381,98.171529 6.73458884,98.1548811 6.99049908,98.121689 L71.7717491,89.7194156 C74.7620673,89.3315646 77,86.7846215 77,83.7692557 L77,5.55983642 C77,4.45669801 76.3945826,3.44255311 75.4235485,2.91909608 L72.3501427,1.26230979 C71.8881536,1.01326449 71.3689123,0.889777463 70.8442695,0.904179905 L7.02665908,2.65609449 C3.23690769,2.76013036 0.21875,5.86227925 0.21875,9.65345835 Z" id="path-1"></path>
        <filter x="-150.0%" y="-150.0%" width="400.0%" height="400.0%" filterUnits="objectBoundingBox" id="filter-3">
            <feGaussianBlur stdDeviation="3" in="SourceGraphic"></feGaussianBlur>
        </filter>
    </defs>
    <g id="页面-2" stroke="none" stroke-width="1" fill="none" fill-rule="evenodd">
        <g id="首页-暂无内容" transform="translate(-121.000000, -363.000000)">
            <g id="编组" transform="translate(121.000000, 363.000000)">
                <ellipse id="椭圆形" fill="#E7FEF8" cx="72" cy="100.192191" rx="72" ry="13.5"></ellipse>
                <polygon id="路径-10" fill="#D4EAF0" points="27.7781233 88 16 90.2520837 27.7781233 96.9605591"></polygon>
                <g id="编组-8" transform="translate(27.000000, 7.000000)">
                    <g id="椭圆形" transform="translate(0.500000, 0.500000)">
                        <mask id="mask-2" fill="white">
                            <use xlink:href="#path-1"></use>
                        </mask>
                        <use id="蒙版" fill="#C0E2EB" xlink:href="#path-1"></use>
                        <circle fill="#FFFFFF" filter="url(#filter-3)" mask="url(#mask-2)" cx="5.5" cy="6.84623974" r="3"></circle>
                    </g>
                    <path d="M4.5,13.5317564 L4.5,90.0005513 C4.5,92.7619751 6.73857625,95.0005513 9.5,95.0005513 C9.71008558,95.0005513 9.91996232,94.9873105 10.1283822,94.9609077 L70.0936759,87.3644531 C72.5921722,87.0479415 74.4652937,84.9225613 74.4652937,82.4040967 L74.4652937,7.37844475 C74.4652937,5.7215905 73.1221479,4.37844475 71.4652937,4.37844475 C71.4294417,4.37844475 71.3935926,4.37908743 71.3577636,4.38037249 L11.2490965,6.53625446 C7.48316971,6.67132473 4.5,9.76340818 4.5,13.5317564 Z" id="路径-3" fill="#E8F5F2"></path>
                    <path d="M12.3976486,10.4182924 L69.1912805,8.81683212 C70.8474765,8.77013089 72.2279474,10.0748842 72.2746486,11.7310801 C72.2754432,11.7592598 72.2758406,11.7874493 72.2758406,11.8156401 L72.2758406,80.1126118 C72.2758406,82.1131385 70.7978833,83.8060394 68.8156578,84.0760191 L13.5679476,91.6007729 C11.3790182,91.8989057 9.36285592,90.3661122 9.06472312,88.1771828 C9.03925373,87.9901833 9.02705063,87.8016156 9.02820528,87.6128931 L9.48226479,13.3987461 C9.49215657,11.7819758 10.7814904,10.4638647 12.3976486,10.4182924 Z" id="路径-4" fill="#FFFFFF"></path>
                    <polygon id="路径-10备份" fill="#C1D9E0" opacity="0.668387277" points="19.361842 90.1729017 4.5 91.3637348 24.9916842 99.5 24.9916842 92.2229287"></polygon>
                    <text id="帮专网" opacity="0.900000036" transform="translate(38.296122, 2.982165) rotate(-13.000000) translate(-38.296122, -2.982165) " font-family="PingFangSC-Semibold, PingFang SC" font-size="2.4" font-weight="500" fill="#C8E0D3">
                        <tspan x="34.6961225" y="3.9821652">帮专网</tspan>
                    </text>
                </g>
                <path d="M67.5,0 C70.3691554,0 72.7251845,2.19695546 72.9776139,5.00039328 L81,5 C83.7614237,5 86,7.23857625 86,10 L86,15 C86,16.1045695 85.1045695,17 84,17 L51,17 C49.8954305,17 49,16.1045695 49,15 L49,10 C49,7.23857625 51.2385763,5 54,5 L62.0223861,5.00039328 C62.2748155,2.19695546 64.6308446,0 67.5,0 Z" id="形状结合" fill="#C5E5E9"></path>
                <ellipse id="椭圆形" stroke="#FFFFFF" fill="#67C2C7" opacity="0.540852865" cx="67" cy="6.5" rx="2.5" ry="3"></ellipse>
                <path d="M91,72.9019385 C91.5522847,72.8777401 92,73.3058386 92,73.8581234 L92,75.8581234 C92,76.4104081 91.5522847,76.8777401 91,76.9019385 L44,78.9612501 C43.4477153,78.9854485 43,78.55735 43,78.0050652 L43,76.0050652 C43,75.4527805 43.4477153,74.9854485 44,74.9612501 L91,72.9019385 Z M91,61.9006722 C91.5522847,61.8764738 92,62.3045723 92,62.8568571 L92,64.8568571 C92,65.4091418 91.5522847,65.8764738 91,65.9006722 L44,67.9599838 C43.4477153,67.9841822 43,67.5560837 43,67.0037989 L43,65.0037989 C43,64.4515142 43.4477153,63.9841822 44,63.9599838 L91,61.9006722 Z M91,50.8994059 C91.5522847,50.8752075 92,51.303306 92,51.8555907 L92,53.8555907 C92,54.4078755 91.5522847,54.8752075 91,54.8994059 L44,56.9587175 C43.4477153,56.9829159 43,56.5548174 43,56.0025326 L43,54.0025326 C43,53.4502479 43.4477153,52.9829159 44,52.9587175 L91,50.8994059 Z M91,39.8981396 C91.5522847,39.8739411 92,40.3020397 92,40.8543244 L92,42.8543244 C92,43.4066092 91.5522847,43.8739411 91,43.8981396 L44,45.9574512 C43.4477153,45.9816496 43,45.5535511 43,45.0012663 L43,43.0012663 C43,42.4489816 43.4477153,41.9816496 44,41.9574512 L91,39.8981396 Z M91,28.8968733 C91.5522847,28.8726748 92,29.3007734 92,29.8530581 L92,31.8530581 C92,32.4053429 91.5522847,32.8726748 91,32.8968733 L44,34.9561849 C43.4477153,34.9803833 43,34.5522847 43,34 L43,32 C43,31.4477153 43.4477153,30.9803833 44,30.9561849 L91,28.8968733 Z" id="形状结合" fill="#D8D8D8" opacity="0.355259487"></path>
                <g id="编组-6" transform="translate(37.000000, 66.000000)">
                    <path d="M2.14013877,6.56943307 L36.3245928,0.330136207 C37.3472095,0.143489699 38.3423259,0.771352108 38.6141227,1.77470063 L45.4311818,26.9401377 C45.7199894,28.0062821 45.0898334,29.1046877 44.023689,29.3934953 C43.969623,29.4081413 43.9149655,29.4205094 43.8598612,29.4305669 L9.67540719,35.6698638 C8.65279052,35.8565103 7.6576741,35.2286479 7.38587727,34.2252994 L0.568818171,9.05986234 C0.280010567,7.99371791 0.910166572,6.89531226 1.976311,6.60650465 C2.03037702,6.59185872 2.08503447,6.57949062 2.14013877,6.56943307 Z" id="矩形备份-10" fill="#AAD0D2"></path>
                    <path d="M12.7456663,27.9642319 L18.1272777,13.2717183 C18.3172287,12.7531268 18.8916158,12.4867111 19.4102073,12.6766621 C19.5168573,12.7157262 19.616073,12.7726736 19.7035965,12.8450606 L25.2829824,17.4595344 C25.7085699,17.8115198 26.3389173,17.7518535 26.6909027,17.326266 C26.7500223,17.2547841 26.7989085,17.175424 26.836155,17.0904682 L30.5942892,8.51852871 C30.816047,8.01272055 31.4058558,7.78245228 31.911664,8.00421014 C32.0605745,8.06949593 32.1913201,8.17010707 32.292572,8.29732596 L40.1404337,18.1578462 C40.4843584,18.5899737 40.412856,19.2190884 39.9807285,19.5630132 C39.8979107,19.6289268 39.8051534,19.681274 39.7059203,19.7181003 L14.0325819,29.2456918 C13.5148021,29.4378442 12.9392884,29.1738711 12.747136,28.6560913 C12.6643421,28.4329923 12.663821,28.1876806 12.7456663,27.9642319 Z" id="路径-9备份" fill="#AAC4C6"></path>
                    <rect id="矩形" fill="#D4EAF0" x="14" y="9" width="45" height="32" rx="2"></rect>
                    <path d="M18.7848559,35.7065123 L29.2138044,16.6035208 C29.4784457,16.1187699 30.0859481,15.9403359 30.570699,16.2049773 C30.7383507,16.2965038 30.8762825,16.4341307 30.9681799,16.6015795 L36.9286,27.4622273 C37.1943136,27.9463913 37.8022094,28.1234805 38.2863734,27.8577669 C38.4234457,27.7825404 38.540968,27.6762195 38.6295028,27.5473419 L41.4877497,23.3866768 C41.8004707,22.9314581 42.4230088,22.8159409 42.8782274,23.1286619 C42.995087,23.2089407 43.0935403,23.3131509 43.167056,23.4343792 L51.0514027,36.4357527 C51.3377783,36.9079893 51.1871083,37.522966 50.7148717,37.8093417 C50.5512154,37.9085868 50.3625155,37.9587814 50.1711787,37.953965 L19.637411,37.1853712 C19.0853011,37.1714735 18.648994,36.7126337 18.6628916,36.1605239 C18.6668909,36.001645 18.7087009,35.8460074 18.7848559,35.7065123 Z" id="路径-9" fill="#FFFFFF"></path>
                    <circle id="椭圆形" fill="#FFFFFF" cx="49" cy="17" r="4"></circle>
                </g>
            </g>
        </g>
    </g>
</svg>